<svg height='24px' width='24px'  fill="#0593fb" xmlns:dc="http://purl.org/dc/elements/1.1/" xmlns:cc="http://creativecommons.org/ns#" xmlns:rdf="http://www.w3.org/1999/02/22-rdf-syntax-ns#" xmlns:svg="http://www.w3.org/2000/svg" xmlns="http://www.w3.org/2000/svg" xmlns:sodipodi="http://sodipodi.sourceforge.net/DTD/sodipodi-0.dtd" xmlns:inkscape="http://www.inkscape.org/namespaces/inkscape" version="1.1" x="0px" y="0px" viewBox="0 0 100 100"><g transform="translate(0,-952.36218)"><path style="text-indent:0;text-transform:none;direction:ltr;block-progression:tb;baseline-shift:baseline;color:#000000;enable-background:accumulate;" d="m 7.7812543,963.36213 c -1.49644,0.1095 -2.7851,1.4997 -2.78125,3.0002 0,19.3341 0,38.66827 0,58.00247 1.6e-4,1.5709 1.42925,2.9999 3,3.0001 l 35.9999997,0 0,6.844 -8.4375,1.1876 c -1.55452,0.229 -2.76055,1.8518 -2.53147,3.4064 0.22909,1.5546 1.85198,2.7605 3.40647,2.5313 l 13.5625,-1.9376 13.5625,1.9376 c 1.55449,0.2292 3.17738,-0.9767 3.40647,-2.5313 0.22908,-1.5546 -0.97695,-3.1774 -2.53147,-3.4064 l -8.4375,-1.2189 0,-6.8127 36,0 c 1.57075,-2e-4 2.99984,-1.4292 3,-3.0001 0,-19.3342 0,-38.66817 0,-58.00227 -1.6e-4,-1.5709 -1.42925,-3 -3,-3.0002 -28.06838,0 -56.16572,0 -84.2187497,0 z m 3.2187497,6.0003 78,0 0,46.00197 -78,0 z m 39,50.03337 c 0.55228,0 1,0.4477 1,1 0,0.5063 -0.3869,0.9025 -0.875,0.9689 l -0.25,0 c -0.4881,-0.066 -0.875,-0.4626 -0.875,-0.9689 0,-0.5523 0.44772,-1 1,-1 z" fill="#0593fb" fill-opacity="1" stroke="none" marker="none" visibility="visible" display="inline" overflow="visible"></path></g></svg>